# xmcd
#
# Track frame offsets:
#	150
#	13272
#	26399
#	44606
#	61220
#	78377
#	93717
#	111140
#	128618
#	145424
#	160108
#	178811
#	195528
#	210936
#	225887
#	240604
#	254515
#	270883
#	285678
#	297102
#	316362
#	331454
#
# Disc length: 4610 seconds
#
# Revision: 0
# Processed by: cddbd v1.5.2PL0 Copyright (c) Steve Scherf et al.
# Submitted via: EasyCDDAExtractor 11.5.0.1
#
DISCID=33120016
DTITLE=Various Artist - NCT 111
DYEAR=2008
DGENRE=Country
TTITLE0=George Strait - Troubadour
TTITLE1=Jessica Simpson - Come On Over
TTITLE2=Brad Paisley - Waitin' On A Woman
TTITLE3=Phil Vassar - I Would
TTITLE4=Lance Miller - Old Back In The New School
TTITLE5=Jewel - I Do
TTITLE6=Steve Azar - I Won't Let You Lead Me Down
TTITLE7=Keith Urban - You Look Good In My Shirt
TTITLE8=Cody McCarver - Tonight's The Night
TTITLE9=Randy Owen - Like I Never Broke Her Heart
TTITLE10=Eric Durrance - Angels Fly Away
TTITLE11=Sara Evans - Love You With All My Heart
TTITLE12=One Flew South - My Kind Of Beautiful
TTITLE13=Lee Ann Womack - Last Call
TTITLE14=Heartland - Slow Down
TTITLE15=Lady Antebellum - Looking For A Good Time
TTITLE16=Lee Brice - Upper Middle Class White Trash
TTITLE17=Kellie Pickler - Don't You Know You're Beautiful
TTITLE18=The Roys - I Only Have Good Days
TTITLE19=Sugarland ft. Little Big Town and Jake Owens - Life In A Northern Town
TTITLE20=Carolina Rain - American Radio
TTITLE21=Trailer Choir - Off The Hillbilly Hook
EXTD=
EXTT0=
EXTT1=
EXTT2=
EXTT3=
EXTT4=
EXTT5=
EXTT6=
EXTT7=
EXTT8=
EXTT9=
EXTT10=
EXTT11=
EXTT12=
EXTT13=
EXTT14=
EXTT15=
EXTT16=
EXTT17=
EXTT18=
EXTT19=
EXTT20=
EXTT21=
PLAYORDER=
